<svg width="512" height="512" viewBox="0 0 512 512" fill="none" xmlns="http://www.w3.org/2000/svg">
<path d="M496 448H16C7.16 448 0 455.16 0 464V496C0 504.84 7.16 512 16 512H496C504.84 512 512 504.84 512 496V464C512 455.16 504.84 448 496 448ZM192 384L128 352L192 320L224 256L256 320L320 352L256 384L240 416H448L361.59 214.37C355.411 199.964 354.739 183.79 359.7 168.92L416 0L228.42 107.19C204.757 120.712 186.028 141.434 174.96 166.34L64 416H208L192 384ZM256 160L272 128L288 160L320 176L288 192L272 224L256 192L224 176L256 160Z" fill="#728FBC"/>
</svg>
