<svg width="24" height="24" viewBox="0 0 24 24" fill="none" xmlns="http://www.w3.org/2000/svg">
<path d="M5 6.08994V18.0899L3.71 16.7899C3.5217 16.6016 3.2663 16.4958 3 16.4958C2.7337 16.4958 2.47831 16.6016 2.29 16.7899C2.1017 16.9782 1.99591 17.2336 1.99591 17.4999C1.99591 17.7662 2.1017 18.0216 2.29 18.2099L5.29 21.2099C5.38297 21.3037 5.49357 21.3781 5.61543 21.4288C5.73728 21.4796 5.86799 21.5057 6 21.5057C6.13201 21.5057 6.26272 21.4796 6.38458 21.4288C6.50644 21.3781 6.61704 21.3037 6.71 21.2099L9.71 18.2099C9.80373 18.117 9.87812 18.0064 9.92889 17.8845C9.97966 17.7627 10.0058 17.632 10.0058 17.4999C10.0058 17.3679 9.97966 17.2372 9.92889 17.1154C9.87812 16.9935 9.80373 16.8829 9.71 16.7899C9.61704 16.6962 9.50644 16.6218 9.38458 16.571C9.26272 16.5203 9.13201 16.4941 9 16.4941C8.86799 16.4941 8.73728 16.5203 8.61543 16.571C8.49357 16.6218 8.38297 16.6962 8.29 16.7899L7 18.0899V6.08994C6.99602 5.88507 7.03245 5.68142 7.10719 5.49063C7.18194 5.29983 7.29354 5.12564 7.43562 4.97798C7.5777 4.83033 7.74748 4.71212 7.93525 4.63009C8.12303 4.54807 8.32513 4.50384 8.53 4.49994H11C11.2652 4.49994 11.5196 4.39458 11.7071 4.20705C11.8946 4.01951 12 3.76516 12 3.49994C12 3.23472 11.8946 2.98037 11.7071 2.79283C11.5196 2.6053 11.2652 2.49994 11 2.49994H8.53C8.06249 2.50386 7.60033 2.59983 7.16991 2.78237C6.73949 2.96492 6.34925 3.23045 6.02145 3.56382C5.69366 3.89718 5.43474 4.29185 5.25948 4.72528C5.08422 5.15872 4.99605 5.62243 5 6.08994V6.08994ZM14.29 5.78994C14.1017 5.97824 13.9959 6.23364 13.9959 6.49994C13.9959 6.76624 14.1017 7.02164 14.29 7.20994C14.4783 7.39824 14.7337 7.50403 15 7.50403C15.2663 7.50403 15.5217 7.39824 15.71 7.20994L17 5.90994V17.9099C17.004 18.1148 16.9676 18.3185 16.8928 18.5093C16.8181 18.7 16.7065 18.8742 16.5644 19.0219C16.4223 19.1695 16.2525 19.2878 16.0648 19.3698C15.877 19.4518 15.6749 19.496 15.47 19.4999H13C12.7348 19.4999 12.4804 19.6053 12.2929 19.7928C12.1054 19.9804 12 20.2347 12 20.4999C12 20.7652 12.1054 21.0195 12.2929 21.207C12.4804 21.3946 12.7348 21.4999 13 21.4999H15.47C15.9375 21.496 16.3997 21.4 16.8301 21.2175C17.2605 21.035 17.6508 20.7694 17.9786 20.4361C18.3063 20.1027 18.5653 19.708 18.7405 19.2746C18.9158 18.8412 19.004 18.3774 19 17.9099V5.90994L20.29 7.20994C20.383 7.30367 20.4936 7.37806 20.6154 7.42883C20.7373 7.4796 20.868 7.50574 21 7.50574C21.132 7.50574 21.2627 7.4796 21.3846 7.42883C21.5064 7.37806 21.617 7.30367 21.71 7.20994C21.8037 7.11698 21.8781 7.00638 21.9289 6.88452C21.9797 6.76266 22.0058 6.63195 22.0058 6.49994C22.0058 6.36793 21.9797 6.23722 21.9289 6.11536C21.8781 5.9935 21.8037 5.8829 21.71 5.78994L18.71 2.78994C18.617 2.69621 18.5064 2.62182 18.3846 2.57105C18.2627 2.52028 18.132 2.49414 18 2.49414C17.868 2.49414 17.7373 2.52028 17.6154 2.57105C17.4936 2.62182 17.383 2.69621 17.29 2.78994L14.29 5.78994Z" fill="#728FBC"/>
</svg>
